ModelForces
version=1
nRows=4
nColumns=155
inDegrees=no

This file contains the forces exerted on a model during a simulation.

A force is a generalized force, meaning that it can be either a force (N) or a torque (Nm).

Units are S.I. units (second, meters, Newtons, ...)
Angles are in degrees.

endheader
time	glut_med1_r	glut_med2_r	glut_med3_r	glut_min1_r	glut_min2_r	glut_min3_r	semimem_r	semiten_r	bifemlh_r	bifemsh_r	sar_r	add_long_r	add_brev_r	add_mag1_r	add_mag2_r	add_mag3_r	tfl_r	pect_r	grac_r	glut_max1_r	glut_max2_r	glut_max3_r	iliacus_r	psoas_r	quad_fem_r	gem_r	peri_r	rect_fem_r	vas_med_r	vas_int_r	vas_lat_r	med_gas_r	lat_gas_r	soleus_r	tib_post_r	flex_dig_r	flex_hal_r	tib_ant_r	per_brev_r	per_long_r	per_tert_r	ext_dig_r	ext_hal_r	glut_med1_l	glut_med2_l	glut_med3_l	glut_min1_l	glut_min2_l	glut_min3_l	semimem_l	semiten_l	bifemlh_l	bifemsh_l	sar_l	add_long_l	add_brev_l	add_mag1_l	add_mag2_l	add_mag3_l	tfl_l	pect_l	grac_l	glut_max1_l	glut_max2_l	glut_max3_l	iliacus_l	psoas_l	quad_fem_l	gem_l	peri_l	rect_fem_l	vas_med_l	vas_int_l	vas_lat_l	med_gas_l	lat_gas_l	soleus_l	tib_post_l	flex_dig_l	flex_hal_l	tib_ant_l	per_brev_l	per_long_l	per_tert_l	ext_dig_l	ext_hal_l	ercspn_r	ercspn_l	intobl_r	intobl_l	extobl_r	extobl_l	femur_lat_meniscii_r.femur_lat_r.force.X	femur_lat_meniscii_r.femur_lat_r.force.Y	femur_lat_meniscii_r.femur_lat_r.force.Z	femur_lat_meniscii_r.femur_lat_r.torque.X	femur_lat_meniscii_r.femur_lat_r.torque.Y	femur_lat_meniscii_r.femur_lat_r.torque.Z	femur_lat_meniscii_r.meniscus_lat_r.force.X	femur_lat_meniscii_r.meniscus_lat_r.force.Y	femur_lat_meniscii_r.meniscus_lat_r.force.Z	femur_lat_meniscii_r.meniscus_lat_r.torque.X	femur_lat_meniscii_r.meniscus_lat_r.torque.Y	femur_lat_meniscii_r.meniscus_lat_r.torque.Z	femur_med_meniscii_r.femur_med_r.force.X	femur_med_meniscii_r.femur_med_r.force.Y	femur_med_meniscii_r.femur_med_r.force.Z	femur_med_meniscii_r.femur_med_r.torque.X	femur_med_meniscii_r.femur_med_r.torque.Y	femur_med_meniscii_r.femur_med_r.torque.Z	femur_med_meniscii_r.meniscus_med_r.force.X	femur_med_meniscii_r.meniscus_med_r.force.Y	femur_med_meniscii_r.meniscus_med_r.force.Z	femur_med_meniscii_r.meniscus_med_r.torque.X	femur_med_meniscii_r.meniscus_med_r.torque.Y	femur_med_meniscii_r.meniscus_med_r.torque.Z	femur_med_tibia_r.tibia_upper_r.force.X	femur_med_tibia_r.tibia_upper_r.force.Y	femur_med_tibia_r.tibia_upper_r.force.Z	femur_med_tibia_r.tibia_upper_r.torque.X	femur_med_tibia_r.tibia_upper_r.torque.Y	femur_med_tibia_r.tibia_upper_r.torque.Z	femur_med_tibia_r.femur_med_r.force.X	femur_med_tibia_r.femur_med_r.force.Y	femur_med_tibia_r.femur_med_r.force.Z	femur_med_tibia_r.femur_med_r.torque.X	femur_med_tibia_r.femur_med_r.torque.Y	femur_med_tibia_r.femur_med_r.torque.Z	femur_lat_tibia_r.tibia_upper_r.force.X	femur_lat_tibia_r.tibia_upper_r.force.Y	femur_lat_tibia_r.tibia_upper_r.force.Z	femur_lat_tibia_r.tibia_upper_r.torque.X	femur_lat_tibia_r.tibia_upper_r.torque.Y	femur_lat_tibia_r.tibia_upper_r.torque.Z	femur_lat_tibia_r.femur_lat_r.force.X	femur_lat_tibia_r.femur_lat_r.force.Y	femur_lat_tibia_r.femur_lat_r.force.Z	femur_lat_tibia_r.femur_lat_r.torque.X	femur_lat_tibia_r.femur_lat_r.torque.Y	femur_lat_tibia_r.femur_lat_r.torque.Z	aACL_R	pACL_R	aPCL_R	pPCL_R	aMCL_R	mMCL_R	pMCL_R	aLCL_R	mLCL_R	pLCL_R	aPCL_L	pPCL_L	aMCL_L	aLCL_L
      0.16481607	     11.41740538	      8.33581833	      8.96544921	      3.84894893	      4.47418660	      4.84164957	      0.00000000	    165.46928078	    142.30286032	    299.14910069	    129.94372849	      8.29614259	      5.97394095	      3.51090779	      3.63486724	      6.12637289	      4.96398769	      3.24880011	     99.41386549	      5.38228981	      8.18781506	      6.15290502	     27.52906113	     18.50853942	      5.29258471	      3.65300673	      6.23896581	     54.26959243	     31.12206817	     33.30667676	     45.02879277	      0.00000000	      0.00000000	      0.00000000	      0.00000000	      0.00000000	      0.00000000	     33.84789944	      2.27542520	      2.87301387	     26.65734528	     42.51532225	     10.87230641	     11.41740538	      8.33581833	      8.96544921	      3.84894893	      4.47418660	      4.84164957	      0.00000000	      6.17676512	     12.19450655	     10.53419196	      2.19613275	      8.29614259	      5.97394095	      3.51090779	      3.63486724	      6.12637289	      5.42011456	      3.24880011	      2.26706729	      5.38228981	      8.18781506	      6.15290502	     27.52906113	     18.50853942	      5.29258471	      3.65300673	      6.23896581	     16.98550578	      0.00000000	      0.00000000	      0.00000000	     21.16326444	      9.99759431	     50.73224749	     50.94253254	      5.44295588	      4.86965015	     13.21837366	      7.07030605	     18.16320625	      2.86169759	      8.81668177	      2.76994153	     36.22886675	     36.22886675	     13.46009922	     13.46009922	     30.82535806	     30.82535806	    111.33160273	    201.93158431	     25.23388058	    -15.05916620	      2.71020082	     43.49644989	   -111.33160273	   -201.93158431	    -25.23388058	      5.61358932	     -3.39754240	      3.67771282	     27.09554969	     23.79829754	     12.08600930	     -4.32845487	     -0.61070071	     10.86349686	    -27.09554969	    -23.79829754	    -12.08600930	     -0.30520222	      0.32091600	      0.09527916	   -745.10977821	   -681.65795921	    222.68167699	    -15.79202569	     16.90303591	     -1.06642784	    745.10977821	    681.65795921	   -222.68167699	    102.84971501	    -13.43424484	    302.98648491	      0.00000000	      0.00000000	      0.00000000	      0.00000000	      0.00000000	      0.00000000	      0.00000000	      0.00000000	      0.00000000	      0.00000000	      0.00000000	      0.00000000	     -1.52417349	      0.00000000	    578.85612923	    374.42645197	      0.00000000	      0.00000000	      0.00000000	      0.00000000	      0.00000000	      0.00000000	      0.00000000	      0.00000000	      0.00000001	      0.00000000
      0.16506894	     11.40522470	      8.32692547	      8.95577015	      3.84501095	      4.46987766	      4.83614636	      0.00000000	    165.50181729	    142.34411620	    299.19173586	    129.93041325	      8.28719029	      5.96788569	      3.56951847	      3.63091904	      6.11921883	      4.95539949	      3.24545241	     99.39815636	      5.37652501	      8.17902561	      6.14619759	     27.51267354	     18.48985091	      5.28705185	      3.65030379	      6.23624688	     54.48763114	     31.11362619	     33.29895523	     45.01743934	      0.00000000	      0.00000000	      0.00000000	      0.00000000	      0.00000000	      0.00000000	     33.88834727	      2.26534489	      2.87017291	     23.81799841	     42.68109349	     10.91116459	     11.40522470	      8.32692547	      8.95577015	      3.84501095	      4.46987766	      4.83614636	      0.00000000	      6.16975834	     12.18092803	     10.52316687	      2.19389630	      8.28719029	      5.96788569	      3.56951847	      3.63091904	      6.11921883	      5.41570639	      3.24545241	      2.26471804	      5.37652501	      8.17902561	      6.14619759	     27.51267354	     18.48985091	      5.28705185	      3.65030379	      6.23624688	     16.96484224	      0.00000000	      0.00000000	      0.00000000	     21.15704012	      9.99377073	     50.68250685	     50.91629949	      5.43723616	      4.86443830	     13.20318384	      7.06170394	     18.14711218	      2.85881864	      8.80576390	      2.76669360	     36.19171662	     36.19171662	     13.44518726	     13.44518726	     30.81183878	     30.81183878	    113.22685671	    200.47111873	     24.96632605	    -14.90220840	      2.76020027	     44.28700514	   -113.22685671	   -200.47111873	    -24.96632605	      5.55745482	     -3.44637821	      3.60293796	     27.23861609	     23.74013610	     11.97008832	     -4.28268472	     -0.61331565	     10.91930115	    -27.23861609	    -23.74013610	    -11.97008832	     -0.30665778	      0.32506563	      0.09569136	   -747.46834392	   -681.86719748	    223.47553888	    -15.79197318	     16.96579678	     -1.01933865	    747.46834392	    681.86719748	   -223.47553888	    103.16720908	    -13.47600500	    303.91511758	      0.00000000	      0.00000000	      0.00000000	      0.00000000	      0.00000000	      0.00000000	      0.00000000	      0.00000000	      0.00000000	      0.00000000	      0.00000000	      0.00000000	     -1.54879327	      0.00000000	    581.38845539	    375.63899651	      0.00000000	      0.00000000	      0.00000000	      0.00000000	      0.00000000	      0.00000000	      0.00000000	      0.00000000	      0.00000001	      0.00000000
      0.16552564	     11.38328809	      8.31094076	      8.93837247	      3.83793218	      4.46213240	      4.82625385	      0.00000000	    165.54931055	    142.43038335	    299.29799124	    129.89881271	      8.27109897	      5.95700086	      3.66111339	      3.62382230	      6.10635950	      4.93941275	      3.23943479	     99.36310293	      5.36616316	      8.16322714	      6.13414149	     27.48321929	     18.45626146	      5.27710648	      3.64544587	      6.23127257	     54.88393243	     31.09336547	     33.28290423	     44.99647255	      0.00000000	      0.00000000	      0.00000000	      0.00000000	      0.00000000	      0.00000000	     33.96154614	      2.24674593	      2.86454533	     39.00621910	     42.97227433	     10.97880907	     11.38328809	      8.31094076	      8.93837247	      3.83793218	      4.46213240	      4.82625385	      0.00000000	      6.15716414	     12.15647392	     10.50334922	      2.18987614	      8.27109897	      5.95700086	      3.66111339	      3.62382230	      6.10635950	      5.40778219	      3.23943479	      2.26049518	      5.36616316	      8.16322714	      6.13414149	     27.48321929	     18.45626146	      5.27710648	      3.64544587	      6.23127257	     16.92769024	      0.00000000	      0.00000000	      0.00000000	     21.14560264	      9.98678006	     50.59272654	     50.86908742	      5.42685508	      4.85495394	     13.17585312	      7.04622967	     18.11812184	      2.85364415	      8.78632571	      2.76093172	     36.12493725	     36.12493725	     13.41838398	     13.41838398	     30.78754032	     30.78754032	    116.39596907	    201.81409147	     25.95016660	    -15.34830189	      2.85223686	     45.57147254	   -116.39596907	   -201.81409147	    -25.95016660	      5.62471064	     -3.56630725	      3.59569900	     27.23851506	     23.27813374	     11.80392390	     -4.22604901	     -0.61197079	     10.91917395	    -27.23851506	    -23.27813374	    -11.80392390	     -0.30047557	      0.32601610	      0.09007183	   -752.21782781	   -680.83601074	    223.82902060	    -15.74234920	     17.05352013	     -0.99034731	    752.21782781	    680.83601074	   -223.82902060	    103.27166851	    -13.54877350	    305.80905207	      0.00000000	      0.00000000	      0.00000000	      0.00000000	      0.00000000	      0.00000000	      0.00000000	      0.00000000	      0.00000000	      0.00000000	      0.00000000	      0.00000000	     -1.55253513	      0.00000000	    585.93093725	    377.80148926	      0.00000000	      0.00000000	      0.00000000	      0.00000000	      0.00000000	      0.00000000	      0.00000000	      0.00000000	      0.00000001	      0.00000000
      0.16573447	     11.37328458	      8.30366426	      8.93045286	      3.83470967	      4.45860662	      4.82175036	      0.00000000	    165.56755754	    142.47426299	    299.35582177	    129.88309372	      8.26377402	      5.95204563	      3.69762888	      3.62059177	      6.10050568	      4.93196271	      3.23669539	     99.34551854	      5.36144638	      8.15603557	      6.12865352	     27.46981209	     18.44097214	      5.27257910	      3.64323470	      6.22897105	     55.06818848	     31.09044819	     33.27849814	     44.98804799	      0.00000000	      0.00000000	      0.00000000	      0.00000000	      0.00000000	      0.00000000	     33.99454389	      2.23831805	      2.86197737	      7.55293506	     43.11346859	     11.01262304	     11.37328458	      8.30366426	      8.93045286	      3.83470967	      4.45860662	      4.82175036	      0.00000000	      6.15143118	     12.14532216	     10.49432776	      2.18804600	      8.26377402	      5.95204563	      3.69762888	      3.62059177	      6.10050568	      5.40417471	      3.23669539	      2.25857282	      5.36144638	      8.15603557	      6.12865352	     27.46981209	     18.44097214	      5.27257910	      3.64323470	      6.22897105	     16.91077390	      0.00000000	      0.00000000	      0.00000000	     21.14028941	      9.98354741	     50.55169905	     50.84757083	      5.42208614	      4.85058619	     13.16340021	      7.03918038	     18.10489882	      2.85128879	      8.77755687	      2.75834136	     36.09453694	     36.09453694	     13.40618294	     13.40618294	     30.77648016	     30.77648016	    116.49754061	    202.17551386	     26.00667143	    -15.37873918	      2.85412770	     45.60078253	   -116.49754061	   -202.17551386	    -26.00667143	      5.63352841	     -3.57080572	      3.62458016	     27.40614280	     23.22155483	     11.70337849	     -4.18672129	     -0.61505642	     10.98535722	    -27.40614280	    -23.22155483	    -11.70337849	     -0.30134625	      0.33041759	      0.08925477	   -754.57679145	   -679.50808394	    223.91677259	    -15.70581359	     17.09388353	     -1.00758629	    754.57679145	    679.50808394	   -223.91677259	    103.27579402	    -13.58414255	    306.76035077	      0.00000000	      0.00000000	      0.00000000	      0.00000000	      0.00000000	      0.00000000	      0.00000000	      0.00000000	      0.00000000	      0.00000000	      0.00000000	      0.00000000	     -1.51980364	      0.00000000	    588.01460556	    378.83025551	      0.00000000	      0.00000000	      0.00000000	      0.00000000	      0.00000000	      0.00000000	      0.00000000	      0.00000000	      0.00000001	      0.00000000
